<?xml version="1.0" encoding="utf-8" ?>
<svg baseProfile="full" height="57.5mm" version="1.1" viewBox="0,0,306.20000000000005,57.5" width="306.20000000000005mm" xmlns="http://www.w3.org/2000/svg" xmlns:ev="http://www.w3.org/2001/xml-events" xmlns:xlink="http://www.w3.org/1999/xlink"><defs /><rect fill="#ffffff" height="57.5" width="306.20000000000005" x="0" y="0" /><text fill="#586e75" style="font-size:6px; font-family:Arial; font-weight:bold;" x="10" y="10">Jerry's </text><text fill="#586e75" style="font-size:3px; font-family:Arial;" x="10" y="14.4">2024: 280 hours</text><text fill="#586e75" style="font-size:2.5px; font-family:Arial" x="10" y="18.3">Jan</text><rect fill="#ccffff" height="4" rx="1" ry="1" width="4" x="10" y="19.7"><title>2024-01-01 0.15 mins</title></rect><rect fill="#6c71c4" height="4" rx="1" ry="1" width="4" x="10" y="25.1"><title>2024-01-02 140.33 mins</title></rect><rect fill="#6c71c4" height="4" rx="1" ry="1" width="4" x="10" y="30.5"><title>2024-01-03 196.68 mins</title></rect><rect fill="#c9fdff" height="4" rx="1" ry="1" width="4" x="10" y="35.9"><title>2024-01-04 13.25 mins</title></rect><rect fill="#65eafa" height="4" rx="1" ry="1" width="4" x="10" y="41.300000000000004"><title>2024-01-05 60.8 mins</title></rect><rect fill="#65ecfa" height="4" rx="1" ry="1" width="4" x="10" y="46.699999999999996"><title>2024-01-06 55.17 mins</title></rect><rect fill="#c5fbfe" height="4" rx="1" ry="1" width="4" x="10" y="52.1"><title>2024-01-07 29.57 mins</title></rect><rect fill="#65e7f9" height="4" rx="1" ry="1" width="4" x="15.4" y="19.7"><title>2024-01-08 69.98 mins</title></rect><rect fill="#65e7f9" height="4" rx="1" ry="1" width="4" x="15.4" y="25.1"><title>2024-01-09 70.48 mins</title></rect><rect fill="#c5fbfe" height="4" rx="1" ry="1" width="4" x="15.4" y="30.5"><title>2024-01-10 27.8 mins</title></rect><rect fill="#65e9fa" height="4" rx="1" ry="1" width="4" x="15.4" y="35.9"><title>2024-01-11 65.38 mins</title></rect><rect fill="#c9feff" height="4" rx="1" ry="1" width="4" x="15.4" y="41.300000000000004"><title>2024-01-12 11.33 mins</title></rect><rect fill="#cbffff" height="4" rx="1" ry="1" width="4" x="15.4" y="46.699999999999996"><title>2024-01-13 2.98 mins</title></rect><rect fill="#ccffff" height="4" rx="1" ry="1" width="4" x="15.4" y="52.1"><title>2024-01-14 1.95 mins</title></rect><rect fill="#cbfeff" height="4" rx="1" ry="1" width="4" x="20.8" y="19.7"><title>2024-01-15 4.57 mins</title></rect><rect fill="#c9feff" height="4" rx="1" ry="1" width="4" x="20.8" y="25.1"><title>2024-01-16 12.13 mins</title></rect><rect fill="#65eafa" height="4" rx="1" ry="1" width="4" x="20.8" y="30.5"><title>2024-01-17 62.63 mins</title></rect><rect fill="#65e4f8" height="4" rx="1" ry="1" width="4" x="20.8" y="35.9"><title>2024-01-18 81.43 mins</title></rect><rect fill="#6c71c4" height="4" rx="1" ry="1" width="4" x="20.8" y="41.300000000000004"><title>2024-01-19 239.55 mins</title></rect><rect fill="#65e7f9" height="4" rx="1" ry="1" width="4" x="20.8" y="46.699999999999996"><title>2024-01-20 70.63 mins</title></rect><rect fill="#c8fdff" height="4" rx="1" ry="1" width="4" x="20.8" y="52.1"><title>2024-01-21 17.08 mins</title></rect><rect fill="#6c71c4" height="4" rx="1" ry="1" width="4" x="26.200000000000003" y="19.7"><title>2024-01-22 100.5 mins</title></rect><rect fill="#65e2f8" height="4" rx="1" ry="1" width="4" x="26.200000000000003" y="25.1"><title>2024-01-23 85.48 mins</title></rect><rect fill="#65f3fc" height="4" rx="1" ry="1" width="4" x="26.200000000000003" y="30.5"><title>2024-01-24 36.22 mins</title></rect><rect fill="#c7fdfe" height="4" rx="1" ry="1" width="4" x="26.200000000000003" y="35.9"><title>2024-01-25 18.48 mins</title></rect><rect fill="#c9feff" height="4" rx="1" ry="1" width="4" x="26.200000000000003" y="41.300000000000004"><title>2024-01-26 9.95 mins</title></rect><rect fill="#ccffff" height="4" rx="1" ry="1" width="4" x="26.200000000000003" y="46.699999999999996"><title>2024-01-27 0.03 mins</title></rect><rect fill="#cbfeff" height="4" rx="1" ry="1" width="4" x="26.200000000000003" y="52.1"><title>2024-01-28 4.4 mins</title></rect><rect fill="#ccffff" height="4" rx="1" ry="1" width="4" x="31.6" y="19.7"><title>2024-01-29 0.42 mins</title></rect><rect fill="#cafeff" height="4" rx="1" ry="1" width="4" x="31.6" y="25.1"><title>2024-01-30 8.13 mins</title></rect><rect fill="#6c71c4" height="4" rx="1" ry="1" width="4" x="31.6" y="30.5"><title>2024-01-31 277.65 mins</title></rect><rect fill="#6c71c4" height="4" rx="1" ry="1" width="4" x="31.6" y="35.9"><title>2024-02-01 548.3 mins</title></rect><rect fill="#6c71c4" height="4" rx="1" ry="1" width="4" x="31.6" y="41.300000000000004"><title>2024-02-02 118.07 mins</title></rect><rect fill="#6c71c4" height="4" rx="1" ry="1" width="4" x="31.6" y="46.699999999999996"><title>2024-02-03 158.83 mins</title></rect><rect fill="#c5fbfe" height="4" rx="1" ry="1" width="4" x="31.6" y="52.1"><title>2024-02-04 28.5 mins</title></rect><text fill="#586e75" style="font-size:2.5px; font-family:Arial" x="37.0" y="18.3">Feb</text><rect fill="#6c71c4" height="4" rx="1" ry="1" width="4" x="37.0" y="19.7"><title>2024-02-05 170.3 mins</title></rect><rect fill="#c6fcfe" height="4" rx="1" ry="1" width="4" x="37.0" y="25.1"><title>2024-02-06 25.47 mins</title></rect><rect fill="#c9feff" height="4" rx="1" ry="1" width="4" x="37.0" y="30.5"><title>2024-02-07 10.22 mins</title></rect><rect fill="#ccffff" height="4" rx="1" ry="1" width="4" x="37.0" y="35.9"><title>2024-02-08 0.02 mins</title></rect><rect fill="#fffef9" height="4" rx="1" ry="1" width="4" x="37.0" y="41.300000000000004"><title>2024-02-09</title></rect><rect fill="#ccffff" height="4" rx="1" ry="1" width="4" x="37.0" y="46.699999999999996"><title>2024-02-10 1.93 mins</title></rect><rect fill="#ccffff" height="4" rx="1" ry="1" width="4" x="37.0" y="52.1"><title>2024-02-11 0.12 mins</title></rect><rect fill="#cbffff" height="4" rx="1" ry="1" width="4" x="42.4" y="19.7"><title>2024-02-12 2.45 mins</title></rect><rect fill="#ccffff" height="4" rx="1" ry="1" width="4" x="42.4" y="25.1"><title>2024-02-13 1.53 mins</title></rect><rect fill="#ccffff" height="4" rx="1" ry="1" width="4" x="42.4" y="30.5"><title>2024-02-14 0.33 mins</title></rect><rect fill="#ccffff" height="4" rx="1" ry="1" width="4" x="42.4" y="35.9"><title>2024-02-15 0.05 mins</title></rect><rect fill="#c5fcfe" height="4" rx="1" ry="1" width="4" x="42.4" y="41.300000000000004"><title>2024-02-16 26.62 mins</title></rect><rect fill="#fffef9" height="4" rx="1" ry="1" width="4" x="42.4" y="46.699999999999996"><title>2024-02-17</title></rect><rect fill="#65ecfa" height="4" rx="1" ry="1" width="4" x="42.4" y="52.1"><title>2024-02-18 56.92 mins</title></rect><rect fill="#65e0f7" height="4" rx="1" ry="1" width="4" x="47.8" y="19.7"><title>2024-02-19 90.73 mins</title></rect><rect fill="#6c71c4" height="4" rx="1" ry="1" width="4" x="47.8" y="25.1"><title>2024-02-20 112.22 mins</title></rect><rect fill="#6c71c4" height="4" rx="1" ry="1" width="4" x="47.8" y="30.5"><title>2024-02-21 149.52 mins</title></rect><rect fill="#65ecfa" height="4" rx="1" ry="1" width="4" x="47.8" y="35.9"><title>2024-02-22 55.58 mins</title></rect><rect fill="#6c71c4" height="4" rx="1" ry="1" width="4" x="47.8" y="41.300000000000004"><title>2024-02-23 185.38 mins</title></rect><rect fill="#6c71c4" height="4" rx="1" ry="1" width="4" x="47.8" y="46.699999999999996"><title>2024-02-24 158.57 mins</title></rect><rect fill="#65e8f9" height="4" rx="1" ry="1" width="4" x="47.8" y="52.1"><title>2024-02-25 67.42 mins</title></rect><rect fill="#6c71c4" height="4" rx="1" ry="1" width="4" x="53.199999999999996" y="19.7"><title>2024-02-26 105.1 mins</title></rect><rect fill="#65ecfa" height="4" rx="1" ry="1" width="4" x="53.199999999999996" y="25.1"><title>2024-02-27 55.07 mins</title></rect><rect fill="#65e2f8" height="4" rx="1" ry="1" width="4" x="53.199999999999996" y="30.5"><title>2024-02-28 85.55 mins</title></rect><rect fill="#6c71c4" height="4" rx="1" ry="1" width="4" x="53.199999999999996" y="35.9"><title>2024-02-29 141.23 mins</title></rect><rect fill="#6c71c4" height="4" rx="1" ry="1" width="4" x="53.199999999999996" y="41.300000000000004"><title>2024-03-01 233.5 mins</title></rect><rect fill="#cbffff" height="4" rx="1" ry="1" width="4" x="53.199999999999996" y="46.699999999999996"><title>2024-03-02 4.17 mins</title></rect><rect fill="#c6fcfe" height="4" rx="1" ry="1" width="4" x="53.199999999999996" y="52.1"><title>2024-03-03 23.52 mins</title></rect><text fill="#586e75" style="font-size:2.5px; font-family:Arial" x="58.599999999999994" y="18.3">Mar</text><rect fill="#cafeff" height="4" rx="1" ry="1" width="4" x="58.599999999999994" y="19.7"><title>2024-03-04 6.12 mins</title></rect><rect fill="#cbffff" height="4" rx="1" ry="1" width="4" x="58.599999999999994" y="25.1"><title>2024-03-05 4.23 mins</title></rect><rect fill="#65eefb" height="4" rx="1" ry="1" width="4" x="58.599999999999994" y="30.5"><title>2024-03-06 51.48 mins</title></rect><rect fill="#65f0fb" height="4" rx="1" ry="1" width="4" x="58.599999999999994" y="35.9"><title>2024-03-07 43.27 mins</title></rect><rect fill="#c7fcfe" height="4" rx="1" ry="1" width="4" x="58.599999999999994" y="41.300000000000004"><title>2024-03-08 20.12 mins</title></rect><rect fill="#c6fcfe" height="4" rx="1" ry="1" width="4" x="58.599999999999994" y="46.699999999999996"><title>2024-03-09 22.53 mins</title></rect><rect fill="#65e9fa" height="4" rx="1" ry="1" width="4" x="58.599999999999994" y="52.1"><title>2024-03-10 65.25 mins</title></rect><rect fill="#cbfeff" height="4" rx="1" ry="1" width="4" x="63.99999999999999" y="19.7"><title>2024-03-11 5.23 mins</title></rect><rect fill="#ccffff" height="4" rx="1" ry="1" width="4" x="63.99999999999999" y="25.1"><title>2024-03-12 0.6 mins</title></rect><rect fill="#ccffff" height="4" rx="1" ry="1" width="4" x="63.99999999999999" y="30.5"><title>2024-03-13 0.03 mins</title></rect><rect fill="#cbfeff" height="4" rx="1" ry="1" width="4" x="63.99999999999999" y="35.9"><title>2024-03-14 5.82 mins</title></rect><rect fill="#cbfeff" height="4" rx="1" ry="1" width="4" x="63.99999999999999" y="41.300000000000004"><title>2024-03-15 5.6 mins</title></rect><rect fill="#ccffff" height="4" rx="1" ry="1" width="4" x="63.99999999999999" y="46.699999999999996"><title>2024-03-16 0.12 mins</title></rect><rect fill="#65e1f7" height="4" rx="1" ry="1" width="4" x="63.99999999999999" y="52.1"><title>2024-03-17 89.27 mins</title></rect><rect fill="#fffef9" height="4" rx="1" ry="1" width="4" x="69.39999999999999" y="19.7"><title>2024-03-18</title></rect><rect fill="#fffef9" height="4" rx="1" ry="1" width="4" x="69.39999999999999" y="25.1"><title>2024-03-19</title></rect><rect fill="#65e3f8" height="4" rx="1" ry="1" width="4" x="69.39999999999999" y="30.5"><title>2024-03-20 82.05 mins</title></rect><rect fill="#c8fdff" height="4" rx="1" ry="1" width="4" x="69.39999999999999" y="35.9"><title>2024-03-21 17.13 mins</title></rect><rect fill="#fffef9" height="4" rx="1" ry="1" width="4" x="69.39999999999999" y="41.300000000000004"><title>2024-03-22</title></rect><rect fill="#c5fcfe" height="4" rx="1" ry="1" width="4" x="69.39999999999999" y="46.699999999999996"><title>2024-03-23 26.03 mins</title></rect><rect fill="#c8fdff" height="4" rx="1" ry="1" width="4" x="69.39999999999999" y="52.1"><title>2024-03-24 14.78 mins</title></rect><rect fill="#ccffff" height="4" rx="1" ry="1" width="4" x="74.8" y="19.7"><title>2024-03-25 1.22 mins</title></rect><rect fill="#fffef9" height="4" rx="1" ry="1" width="4" x="74.8" y="25.1"><title>2024-03-26</title></rect><rect fill="#fffef9" height="4" rx="1" ry="1" width="4" x="74.8" y="30.5"><title>2024-03-27</title></rect><rect fill="#fffef9" height="4" rx="1" ry="1" width="4" x="74.8" y="35.9"><title>2024-03-28</title></rect><rect fill="#fffef9" height="4" rx="1" ry="1" width="4" x="74.8" y="41.300000000000004"><title>2024-03-29</title></rect><rect fill="#fffef9" height="4" rx="1" ry="1" width="4" x="74.8" y="46.699999999999996"><title>2024-03-30</title></rect><rect fill="#fffef9" height="4" rx="1" ry="1" width="4" x="74.8" y="52.1"><title>2024-03-31</title></rect><text fill="#586e75" style="font-size:2.5px; font-family:Arial" x="80.2" y="18.3">Apr</text><rect fill="#fffef9" height="4" rx="1" ry="1" width="4" x="80.2" y="19.7"><title>2024-04-01</title></rect><rect fill="#fffef9" height="4" rx="1" ry="1" width="4" x="80.2" y="25.1"><title>2024-04-02</title></rect><rect fill="#fffef9" height="4" rx="1" ry="1" width="4" x="80.2" y="30.5"><title>2024-04-03</title></rect><rect fill="#fffef9" height="4" rx="1" ry="1" width="4" x="80.2" y="35.9"><title>2024-04-04</title></rect><rect fill="#fffef9" height="4" rx="1" ry="1" width="4" x="80.2" y="41.300000000000004"><title>2024-04-05</title></rect><rect fill="#fffef9" height="4" rx="1" ry="1" width="4" x="80.2" y="46.699999999999996"><title>2024-04-06</title></rect><rect fill="#fffef9" height="4" rx="1" ry="1" width="4" x="80.2" y="52.1"><title>2024-04-07</title></rect><rect fill="#fffef9" height="4" rx="1" ry="1" width="4" x="85.60000000000001" y="19.7"><title>2024-04-08</title></rect><rect fill="#fffef9" height="4" rx="1" ry="1" width="4" x="85.60000000000001" y="25.1"><title>2024-04-09</title></rect><rect fill="#ccffff" height="4" rx="1" ry="1" width="4" x="85.60000000000001" y="30.5"><title>2024-04-10 0.28 mins</title></rect><rect fill="#c6fcfe" height="4" rx="1" ry="1" width="4" x="85.60000000000001" y="35.9"><title>2024-04-11 22.33 mins</title></rect><rect fill="#65e3f8" height="4" rx="1" ry="1" width="4" x="85.60000000000001" y="41.300000000000004"><title>2024-04-12 82.9 mins</title></rect><rect fill="#fffef9" height="4" rx="1" ry="1" width="4" x="85.60000000000001" y="46.699999999999996"><title>2024-04-13</title></rect><rect fill="#fffef9" height="4" rx="1" ry="1" width="4" x="85.60000000000001" y="52.1"><title>2024-04-14</title></rect><rect fill="#fffef9" height="4" rx="1" ry="1" width="4" x="91.00000000000001" y="19.7"><title>2024-04-15</title></rect><rect fill="#65edfb" height="4" rx="1" ry="1" width="4" x="91.00000000000001" y="25.1"><title>2024-04-16 52.77 mins</title></rect><rect fill="#65e8f9" height="4" rx="1" ry="1" width="4" x="91.00000000000001" y="30.5"><title>2024-04-17 68.98 mins</title></rect><rect fill="#65ecfa" height="4" rx="1" ry="1" width="4" x="91.00000000000001" y="35.9"><title>2024-04-18 54.53 mins</title></rect><rect fill="#c8fdff" height="4" rx="1" ry="1" width="4" x="91.00000000000001" y="41.300000000000004"><title>2024-04-19 16.43 mins</title></rect><rect fill="#fffef9" height="4" rx="1" ry="1" width="4" x="91.00000000000001" y="46.699999999999996"><title>2024-04-20</title></rect><rect fill="#fffef9" height="4" rx="1" ry="1" width="4" x="91.00000000000001" y="52.1"><title>2024-04-21</title></rect><rect fill="#fffef9" height="4" rx="1" ry="1" width="4" x="96.40000000000002" y="19.7"><title>2024-04-22</title></rect><rect fill="#c4fbfe" height="4" rx="1" ry="1" width="4" x="96.40000000000002" y="25.1"><title>2024-04-23 30.87 mins</title></rect><rect fill="#65f4fc" height="4" rx="1" ry="1" width="4" x="96.40000000000002" y="30.5"><title>2024-04-24 33.6 mins</title></rect><rect fill="#cbffff" height="4" rx="1" ry="1" width="4" x="96.40000000000002" y="35.9"><title>2024-04-25 3.3 mins</title></rect><rect fill="#fffef9" height="4" rx="1" ry="1" width="4" x="96.40000000000002" y="41.300000000000004"><title>2024-04-26</title></rect><rect fill="#fffef9" height="4" rx="1" ry="1" width="4" x="96.40000000000002" y="46.699999999999996"><title>2024-04-27</title></rect><rect fill="#ccffff" height="4" rx="1" ry="1" width="4" x="96.40000000000002" y="52.1"><title>2024-04-28 0.03 mins</title></rect><rect fill="#cbffff" height="4" rx="1" ry="1" width="4" x="101.80000000000003" y="19.7"><title>2024-04-29 4.22 mins</title></rect><rect fill="#fffef9" height="4" rx="1" ry="1" width="4" x="101.80000000000003" y="25.1"><title>2024-04-30</title></rect><rect fill="#fffef9" height="4" rx="1" ry="1" width="4" x="101.80000000000003" y="30.5"><title>2024-05-01</title></rect><rect fill="#fffef9" height="4" rx="1" ry="1" width="4" x="101.80000000000003" y="35.9"><title>2024-05-02</title></rect><rect fill="#fffef9" height="4" rx="1" ry="1" width="4" x="101.80000000000003" y="41.300000000000004"><title>2024-05-03</title></rect><rect fill="#fffef9" height="4" rx="1" ry="1" width="4" x="101.80000000000003" y="46.699999999999996"><title>2024-05-04</title></rect><rect fill="#fffef9" height="4" rx="1" ry="1" width="4" x="101.80000000000003" y="52.1"><title>2024-05-05</title></rect><text fill="#586e75" style="font-size:2.5px; font-family:Arial" x="107.20000000000003" y="18.3">May</text><rect fill="#c7fdfe" height="4" rx="1" ry="1" width="4" x="107.20000000000003" y="19.7"><title>2024-05-06 18.62 mins</title></rect><rect fill="#fffef9" height="4" rx="1" ry="1" width="4" x="107.20000000000003" y="25.1"><title>2024-05-07</title></rect><rect fill="#ccffff" height="4" rx="1" ry="1" width="4" x="107.20000000000003" y="30.5"><title>2024-05-08 0.08 mins</title></rect><rect fill="#ccffff" height="4" rx="1" ry="1" width="4" x="107.20000000000003" y="35.9"><title>2024-05-09 0.8 mins</title></rect><rect fill="#65e7f9" height="4" rx="1" ry="1" width="4" x="107.20000000000003" y="41.300000000000004"><title>2024-05-10 70.38 mins</title></rect><rect fill="#65eefb" height="4" rx="1" ry="1" width="4" x="107.20000000000003" y="46.699999999999996"><title>2024-05-11 49.22 mins</title></rect><rect fill="#65e6f9" height="4" rx="1" ry="1" width="4" x="107.20000000000003" y="52.1"><title>2024-05-12 74.03 mins</title></rect><rect fill="#65ebfa" height="4" rx="1" ry="1" width="4" x="112.60000000000004" y="19.7"><title>2024-05-13 57.87 mins</title></rect><rect fill="#65e7f9" height="4" rx="1" ry="1" width="4" x="112.60000000000004" y="25.1"><title>2024-05-14 71.65 mins</title></rect><rect fill="#65e3f8" height="4" rx="1" ry="1" width="4" x="112.60000000000004" y="30.5"><title>2024-05-15 81.8 mins</title></rect><rect fill="#66f4fc" height="4" rx="1" ry="1" width="4" x="112.60000000000004" y="35.9"><title>2024-05-16 32.87 mins</title></rect><rect fill="#65f0fb" height="4" rx="1" ry="1" width="4" x="112.60000000000004" y="41.300000000000004"><title>2024-05-17 45.12 mins</title></rect><rect fill="#6c71c4" height="4" rx="1" ry="1" width="4" x="112.60000000000004" y="46.699999999999996"><title>2024-05-18 214.0 mins</title></rect><rect fill="#66f4fc" height="4" rx="1" ry="1" width="4" x="112.60000000000004" y="52.1"><title>2024-05-19 31.38 mins</title></rect><rect fill="#c8fdfe" height="4" rx="1" ry="1" width="4" x="118.00000000000004" y="19.7"><title>2024-05-20 17.57 mins</title></rect><rect fill="#cafeff" height="4" rx="1" ry="1" width="4" x="118.00000000000004" y="25.1"><title>2024-05-21 9.3 mins</title></rect><rect fill="#c5fcfe" height="4" rx="1" ry="1" width="4" x="118.00000000000004" y="30.5"><title>2024-05-22 27.03 mins</title></rect><rect fill="#ccffff" height="4" rx="1" ry="1" width="4" x="118.00000000000004" y="35.9"><title>2024-05-23 1.25 mins</title></rect><rect fill="#cbfeff" height="4" rx="1" ry="1" width="4" x="118.00000000000004" y="41.300000000000004"><title>2024-05-24 5.85 mins</title></rect><rect fill="#ccffff" height="4" rx="1" ry="1" width="4" x="118.00000000000004" y="46.699999999999996"><title>2024-05-25 0.67 mins</title></rect><rect fill="#cafeff" height="4" rx="1" ry="1" width="4" x="118.00000000000004" y="52.1"><title>2024-05-26 9.17 mins</title></rect><rect fill="#c9feff" height="4" rx="1" ry="1" width="4" x="123.40000000000005" y="19.7"><title>2024-05-27 10.32 mins</title></rect><rect fill="#ccffff" height="4" rx="1" ry="1" width="4" x="123.40000000000005" y="25.1"><title>2024-05-28 0.12 mins</title></rect><rect fill="#ccffff" height="4" rx="1" ry="1" width="4" x="123.40000000000005" y="30.5"><title>2024-05-29 0.05 mins</title></rect><rect fill="#ccffff" height="4" rx="1" ry="1" width="4" x="123.40000000000005" y="35.9"><title>2024-05-30 0.53 mins</title></rect><rect fill="#ccffff" height="4" rx="1" ry="1" width="4" x="123.40000000000005" y="41.300000000000004"><title>2024-05-31 0.58 mins</title></rect><rect fill="#ccffff" height="4" rx="1" ry="1" width="4" x="123.40000000000005" y="46.699999999999996"><title>2024-06-01 1.65 mins</title></rect><rect fill="#cafeff" height="4" rx="1" ry="1" width="4" x="123.40000000000005" y="52.1"><title>2024-06-02 6.43 mins</title></rect><text fill="#586e75" style="font-size:2.5px; font-family:Arial" x="128.80000000000004" y="18.3">Jun</text><rect fill="#c9feff" height="4" rx="1" ry="1" width="4" x="128.80000000000004" y="19.7"><title>2024-06-03 10.65 mins</title></rect><rect fill="#c9feff" height="4" rx="1" ry="1" width="4" x="128.80000000000004" y="25.1"><title>2024-06-04 10.8 mins</title></rect><rect fill="#6c71c4" height="4" rx="1" ry="1" width="4" x="128.80000000000004" y="30.5"><title>2024-06-05 248.18 mins</title></rect><rect fill="#6c71c4" height="4" rx="1" ry="1" width="4" x="128.80000000000004" y="35.9"><title>2024-06-06 286.88 mins</title></rect><rect fill="#65effb" height="4" rx="1" ry="1" width="4" x="128.80000000000004" y="41.300000000000004"><title>2024-06-07 47.73 mins</title></rect><rect fill="#6c71c4" height="4" rx="1" ry="1" width="4" x="128.80000000000004" y="46.699999999999996"><title>2024-06-08 253.62 mins</title></rect><rect fill="#65ebfa" height="4" rx="1" ry="1" width="4" x="128.80000000000004" y="52.1"><title>2024-06-09 58.57 mins</title></rect><rect fill="#cbfeff" height="4" rx="1" ry="1" width="4" x="134.20000000000005" y="19.7"><title>2024-06-10 5.25 mins</title></rect><rect fill="#6c71c4" height="4" rx="1" ry="1" width="4" x="134.20000000000005" y="25.1"><title>2024-06-11 254.53 mins</title></rect><rect fill="#cbfeff" height="4" rx="1" ry="1" width="4" x="134.20000000000005" y="30.5"><title>2024-06-12 4.73 mins</title></rect><rect fill="#65f0fb" height="4" rx="1" ry="1" width="4" x="134.20000000000005" y="35.9"><title>2024-06-13 45.02 mins</title></rect><rect fill="#65effb" height="4" rx="1" ry="1" width="4" x="134.20000000000005" y="41.300000000000004"><title>2024-06-14 46.15 mins</title></rect><rect fill="#ccffff" height="4" rx="1" ry="1" width="4" x="134.20000000000005" y="46.699999999999996"><title>2024-06-15 0.3 mins</title></rect><rect fill="#cbfeff" height="4" rx="1" ry="1" width="4" x="134.20000000000005" y="52.1"><title>2024-06-16 4.77 mins</title></rect><rect fill="#cafeff" height="4" rx="1" ry="1" width="4" x="139.60000000000005" y="19.7"><title>2024-06-17 6.77 mins</title></rect><rect fill="#c6fcfe" height="4" rx="1" ry="1" width="4" x="139.60000000000005" y="25.1"><title>2024-06-18 23.58 mins</title></rect><rect fill="#ccffff" height="4" rx="1" ry="1" width="4" x="139.60000000000005" y="30.5"><title>2024-06-19 0.33 mins</title></rect><rect fill="#ccffff" height="4" rx="1" ry="1" width="4" x="139.60000000000005" y="35.9"><title>2024-06-20 0.08 mins</title></rect><rect fill="#fffef9" height="4" rx="1" ry="1" width="4" x="139.60000000000005" y="41.300000000000004"><title>2024-06-21</title></rect><rect fill="#ccffff" height="4" rx="1" ry="1" width="4" x="139.60000000000005" y="46.699999999999996"><title>2024-06-22 0.03 mins</title></rect><rect fill="#fffef9" height="4" rx="1" ry="1" width="4" x="139.60000000000005" y="52.1"><title>2024-06-23</title></rect><rect fill="#fffef9" height="4" rx="1" ry="1" width="4" x="145.00000000000006" y="19.7"><title>2024-06-24</title></rect><rect fill="#c9fdff" height="4" rx="1" ry="1" width="4" x="145.00000000000006" y="25.1"><title>2024-06-25 13.45 mins</title></rect><rect fill="#c5fcfe" height="4" rx="1" ry="1" width="4" x="145.00000000000006" y="30.5"><title>2024-06-26 26.32 mins</title></rect><rect fill="#cafeff" height="4" rx="1" ry="1" width="4" x="145.00000000000006" y="35.9"><title>2024-06-27 8.1 mins</title></rect><rect fill="#65eefb" height="4" rx="1" ry="1" width="4" x="145.00000000000006" y="41.300000000000004"><title>2024-06-28 49.4 mins</title></rect><rect fill="#cbffff" height="4" rx="1" ry="1" width="4" x="145.00000000000006" y="46.699999999999996"><title>2024-06-29 3.88 mins</title></rect><rect fill="#ccffff" height="4" rx="1" ry="1" width="4" x="145.00000000000006" y="52.1"><title>2024-06-30 0.07 mins</title></rect><text fill="#586e75" style="font-size:2.5px; font-family:Arial" x="150.40000000000006" y="18.3">Jul</text><rect fill="#6c71c4" height="4" rx="1" ry="1" width="4" x="150.40000000000006" y="19.7"><title>2024-07-01 103.63 mins</title></rect><rect fill="#65eafa" height="4" rx="1" ry="1" width="4" x="150.40000000000006" y="25.1"><title>2024-07-02 63.48 mins</title></rect><rect fill="#65e7f9" height="4" rx="1" ry="1" width="4" x="150.40000000000006" y="30.5"><title>2024-07-03 69.67 mins</title></rect><rect fill="#6c71c4" height="4" rx="1" ry="1" width="4" x="150.40000000000006" y="35.9"><title>2024-07-04 104.97 mins</title></rect><rect fill="#65edfb" height="4" rx="1" ry="1" width="4" x="150.40000000000006" y="41.300000000000004"><title>2024-07-05 54.37 mins</title></rect><rect fill="#65f2fc" height="4" rx="1" ry="1" width="4" x="150.40000000000006" y="46.699999999999996"><title>2024-07-06 37.3 mins</title></rect><rect fill="#65edfb" height="4" rx="1" ry="1" width="4" x="150.40000000000006" y="52.1"><title>2024-07-07 52.48 mins</title></rect><rect fill="#65e5f8" height="4" rx="1" ry="1" width="4" x="155.80000000000007" y="19.7"><title>2024-07-08 78.13 mins</title></rect><rect fill="#65f1fc" height="4" rx="1" ry="1" width="4" x="155.80000000000007" y="25.1"><title>2024-07-09 42.12 mins</title></rect><rect fill="#66f4fc" height="4" rx="1" ry="1" width="4" x="155.80000000000007" y="30.5"><title>2024-07-10 32.65 mins</title></rect><rect fill="#65eefb" height="4" rx="1" ry="1" width="4" x="155.80000000000007" y="35.9"><title>2024-07-11 51.48 mins</title></rect><rect fill="#cafeff" height="4" rx="1" ry="1" width="4" x="155.80000000000007" y="41.300000000000004"><title>2024-07-12 6.05 mins</title></rect><rect fill="#65eefb" height="4" rx="1" ry="1" width="4" x="155.80000000000007" y="46.699999999999996"><title>2024-07-13 48.72 mins</title></rect><rect fill="#65f0fb" height="4" rx="1" ry="1" width="4" x="155.80000000000007" y="52.1"><title>2024-07-14 44.95 mins</title></rect><rect fill="#65f3fc" height="4" rx="1" ry="1" width="4" x="161.20000000000007" y="19.7"><title>2024-07-15 35.5 mins</title></rect><rect fill="#6c71c4" height="4" rx="1" ry="1" width="4" x="161.20000000000007" y="25.1"><title>2024-07-16 206.53 mins</title></rect><rect fill="#6c71c4" height="4" rx="1" ry="1" width="4" x="161.20000000000007" y="30.5"><title>2024-07-17 181.1 mins</title></rect><rect fill="#6c71c4" height="4" rx="1" ry="1" width="4" x="161.20000000000007" y="35.9"><title>2024-07-18 119.8 mins</title></rect><rect fill="#65f4fc" height="4" rx="1" ry="1" width="4" x="161.20000000000007" y="41.300000000000004"><title>2024-07-19 33.5 mins</title></rect><rect fill="#c8fdff" height="4" rx="1" ry="1" width="4" x="161.20000000000007" y="46.699999999999996"><title>2024-07-20 15.42 mins</title></rect><rect fill="#65effb" height="4" rx="1" ry="1" width="4" x="161.20000000000007" y="52.1"><title>2024-07-21 45.95 mins</title></rect><rect fill="#c8fdff" height="4" rx="1" ry="1" width="4" x="166.60000000000008" y="19.7"><title>2024-07-22 16.47 mins</title></rect><rect fill="#65e0f7" height="4" rx="1" ry="1" width="4" x="166.60000000000008" y="25.1"><title>2024-07-23 91.47 mins</title></rect><rect fill="#6c71c4" height="4" rx="1" ry="1" width="4" x="166.60000000000008" y="30.5"><title>2024-07-24 174.52 mins</title></rect><rect fill="#6c71c4" height="4" rx="1" ry="1" width="4" x="166.60000000000008" y="35.9"><title>2024-07-25 319.37 mins</title></rect><rect fill="#6c71c4" height="4" rx="1" ry="1" width="4" x="166.60000000000008" y="41.300000000000004"><title>2024-07-26 145.2 mins</title></rect><rect fill="#65effb" height="4" rx="1" ry="1" width="4" x="166.60000000000008" y="46.699999999999996"><title>2024-07-27 46.42 mins</title></rect><rect fill="#65ecfa" height="4" rx="1" ry="1" width="4" x="166.60000000000008" y="52.1"><title>2024-07-28 56.03 mins</title></rect><rect fill="#6c71c4" height="4" rx="1" ry="1" width="4" x="172.00000000000009" y="19.7"><title>2024-07-29 119.67 mins</title></rect><rect fill="#65e4f8" height="4" rx="1" ry="1" width="4" x="172.00000000000009" y="25.1"><title>2024-07-30 80.63 mins</title></rect><rect fill="#6c71c4" height="4" rx="1" ry="1" width="4" x="172.00000000000009" y="30.5"><title>2024-07-31 96.4 mins</title></rect><rect fill="#6c71c4" height="4" rx="1" ry="1" width="4" x="172.00000000000009" y="35.9"><title>2024-08-01 110.83 mins</title></rect><rect fill="#6c71c4" height="4" rx="1" ry="1" width="4" x="172.00000000000009" y="41.300000000000004"><title>2024-08-02 208.0 mins</title></rect><rect fill="#6c71c4" height="4" rx="1" ry="1" width="4" x="172.00000000000009" y="46.699999999999996"><title>2024-08-03 141.83 mins</title></rect><rect fill="#6c71c4" height="4" rx="1" ry="1" width="4" x="172.00000000000009" y="52.1"><title>2024-08-04 193.48 mins</title></rect><text fill="#586e75" style="font-size:2.5px; font-family:Arial" x="177.4000000000001" y="18.3">Aug</text><rect fill="#6c71c4" height="4" rx="1" ry="1" width="4" x="177.4000000000001" y="19.7"><title>2024-08-05 278.87 mins</title></rect><rect fill="#6c71c4" height="4" rx="1" ry="1" width="4" x="177.4000000000001" y="25.1"><title>2024-08-06 250.5 mins</title></rect><rect fill="#6c71c4" height="4" rx="1" ry="1" width="4" x="177.4000000000001" y="30.5"><title>2024-08-07 122.67 mins</title></rect><rect fill="#6c71c4" height="4" rx="1" ry="1" width="4" x="177.4000000000001" y="35.9"><title>2024-08-08 120.75 mins</title></rect><rect fill="#6c71c4" height="4" rx="1" ry="1" width="4" x="177.4000000000001" y="41.300000000000004"><title>2024-08-09 152.75 mins</title></rect><rect fill="#66f4fc" height="4" rx="1" ry="1" width="4" x="177.4000000000001" y="46.699999999999996"><title>2024-08-10 31.9 mins</title></rect><rect fill="#6c71c4" height="4" rx="1" ry="1" width="4" x="177.4000000000001" y="52.1"><title>2024-08-11 265.77 mins</title></rect><rect fill="#6c71c4" height="4" rx="1" ry="1" width="4" x="182.8000000000001" y="19.7"><title>2024-08-12 98.27 mins</title></rect><rect fill="#6c71c4" height="4" rx="1" ry="1" width="4" x="182.8000000000001" y="25.1"><title>2024-08-13 103.62 mins</title></rect><rect fill="#6c71c4" height="4" rx="1" ry="1" width="4" x="182.8000000000001" y="30.5"><title>2024-08-14 104.22 mins</title></rect><rect fill="#6c71c4" height="4" rx="1" ry="1" width="4" x="182.8000000000001" y="35.9"><title>2024-08-15 128.08 mins</title></rect><rect fill="#65dff7" height="4" rx="1" ry="1" width="4" x="182.8000000000001" y="41.300000000000004"><title>2024-08-16 94.08 mins</title></rect><rect fill="#c9feff" height="4" rx="1" ry="1" width="4" x="182.8000000000001" y="46.699999999999996"><title>2024-08-17 11.67 mins</title></rect><rect fill="#65eafa" height="4" rx="1" ry="1" width="4" x="182.8000000000001" y="52.1"><title>2024-08-18 61.35 mins</title></rect><rect fill="#65eafa" height="4" rx="1" ry="1" width="4" x="188.2000000000001" y="19.7"><title>2024-08-19 61.15 mins</title></rect><rect fill="#6c71c4" height="4" rx="1" ry="1" width="4" x="188.2000000000001" y="25.1"><title>2024-08-20 108.55 mins</title></rect><rect fill="#65e6f9" height="4" rx="1" ry="1" width="4" x="188.2000000000001" y="30.5"><title>2024-08-21 74.55 mins</title></rect><rect fill="#6c71c4" height="4" rx="1" ry="1" width="4" x="188.2000000000001" y="35.9"><title>2024-08-22 114.95 mins</title></rect><rect fill="#65e3f8" height="4" rx="1" ry="1" width="4" x="188.2000000000001" y="41.300000000000004"><title>2024-08-23 83.92 mins</title></rect><rect fill="#6c71c4" height="4" rx="1" ry="1" width="4" x="188.2000000000001" y="46.699999999999996"><title>2024-08-24 251.08 mins</title></rect><rect fill="#6c71c4" height="4" rx="1" ry="1" width="4" x="188.2000000000001" y="52.1"><title>2024-08-25 231.37 mins</title></rect><rect fill="#6c71c4" height="4" rx="1" ry="1" width="4" x="193.6000000000001" y="19.7"><title>2024-08-26 104.0 mins</title></rect><rect fill="#6c71c4" height="4" rx="1" ry="1" width="4" x="193.6000000000001" y="25.1"><title>2024-08-27 103.02 mins</title></rect><rect fill="#6c71c4" height="4" rx="1" ry="1" width="4" x="193.6000000000001" y="30.5"><title>2024-08-28 153.02 mins</title></rect><rect fill="#6c71c4" height="4" rx="1" ry="1" width="4" x="193.6000000000001" y="35.9"><title>2024-08-29 182.25 mins</title></rect><rect fill="#6c71c4" height="4" rx="1" ry="1" width="4" x="193.6000000000001" y="41.300000000000004"><title>2024-08-30 182.28 mins</title></rect><rect fill="#6c71c4" height="4" rx="1" ry="1" width="4" x="193.6000000000001" y="46.699999999999996"><title>2024-08-31 95.38 mins</title></rect><rect fill="#6c71c4" height="4" rx="1" ry="1" width="4" x="193.6000000000001" y="52.1"><title>2024-09-01 347.6 mins</title></rect><text fill="#586e75" style="font-size:2.5px; font-family:Arial" x="199.0000000000001" y="18.3">Sep</text><rect fill="#6c71c4" height="4" rx="1" ry="1" width="4" x="199.0000000000001" y="19.7"><title>2024-09-02 178.13 mins</title></rect><rect fill="#65f1fc" height="4" rx="1" ry="1" width="4" x="199.0000000000001" y="25.1"><title>2024-09-03 41.38 mins</title></rect><rect fill="#65f1fc" height="4" rx="1" ry="1" width="4" x="199.0000000000001" y="30.5"><title>2024-09-04 41.15 mins</title></rect><rect fill="#65e1f8" height="4" rx="1" ry="1" width="4" x="199.0000000000001" y="35.9"><title>2024-09-05 87.7 mins</title></rect><rect fill="#65e1f8" height="4" rx="1" ry="1" width="4" x="199.0000000000001" y="41.300000000000004"><title>2024-09-06 88.6 mins</title></rect><rect fill="#6c71c4" height="4" rx="1" ry="1" width="4" x="199.0000000000001" y="46.699999999999996"><title>2024-09-07 190.75 mins</title></rect><rect fill="#6c71c4" height="4" rx="1" ry="1" width="4" x="199.0000000000001" y="52.1"><title>2024-09-08 123.73 mins</title></rect><rect fill="#cafeff" height="4" rx="1" ry="1" width="4" x="204.40000000000012" y="19.7"><title>2024-09-09 9.23 mins</title></rect><rect fill="#65e5f8" height="4" rx="1" ry="1" width="4" x="204.40000000000012" y="25.1"><title>2024-09-10 77.85 mins</title></rect><rect fill="#65f0fb" height="4" rx="1" ry="1" width="4" x="204.40000000000012" y="30.5"><title>2024-09-11 45.32 mins</title></rect><rect fill="#cbfeff" height="4" rx="1" ry="1" width="4" x="204.40000000000012" y="35.9"><title>2024-09-12 4.77 mins</title></rect><rect fill="#65eafa" height="4" rx="1" ry="1" width="4" x="204.40000000000012" y="41.300000000000004"><title>2024-09-13 62.55 mins</title></rect><rect fill="#cafeff" height="4" rx="1" ry="1" width="4" x="204.40000000000012" y="46.699999999999996"><title>2024-09-14 8.5 mins</title></rect><rect fill="#cbffff" height="4" rx="1" ry="1" width="4" x="204.40000000000012" y="52.1"><title>2024-09-15 3.53 mins</title></rect><rect fill="#ccffff" height="4" rx="1" ry="1" width="4" x="209.80000000000013" y="19.7"><title>2024-09-16 0.2 mins</title></rect><rect fill="#ccffff" height="4" rx="1" ry="1" width="4" x="209.80000000000013" y="25.1"><title>2024-09-17 1.42 mins</title></rect><rect fill="#c6fcfe" height="4" rx="1" ry="1" width="4" x="209.80000000000013" y="30.5"><title>2024-09-18 21.9 mins</title></rect><rect fill="#65f1fc" height="4" rx="1" ry="1" width="4" x="209.80000000000013" y="35.9"><title>2024-09-19 40.12 mins</title></rect><rect fill="#cbffff" height="4" rx="1" ry="1" width="4" x="209.80000000000013" y="41.300000000000004"><title>2024-09-20 2.75 mins</title></rect><rect fill="#c6fcfe" height="4" rx="1" ry="1" width="4" x="209.80000000000013" y="46.699999999999996"><title>2024-09-21 23.77 mins</title></rect><rect fill="#65f3fc" height="4" rx="1" ry="1" width="4" x="209.80000000000013" y="52.1"><title>2024-09-22 35.8 mins</title></rect><rect fill="#65ebfa" height="4" rx="1" ry="1" width="4" x="215.20000000000013" y="19.7"><title>2024-09-23 59.52 mins</title></rect><rect fill="#65edfb" height="4" rx="1" ry="1" width="4" x="215.20000000000013" y="25.1"><title>2024-09-24 51.6 mins</title></rect><rect fill="#65f3fc" height="4" rx="1" ry="1" width="4" x="215.20000000000013" y="30.5"><title>2024-09-25 34.53 mins</title></rect><rect fill="#c6fcfe" height="4" rx="1" ry="1" width="4" x="215.20000000000013" y="35.9"><title>2024-09-26 24.78 mins</title></rect><rect fill="#ccffff" height="4" rx="1" ry="1" width="4" x="215.20000000000013" y="41.300000000000004"><title>2024-09-27 0.75 mins</title></rect><rect fill="#ccffff" height="4" rx="1" ry="1" width="4" x="215.20000000000013" y="46.699999999999996"><title>2024-09-28 1.38 mins</title></rect><rect fill="#ccffff" height="4" rx="1" ry="1" width="4" x="215.20000000000013" y="52.1"><title>2024-09-29 0.47 mins</title></rect><rect fill="#c8fdfe" height="4" rx="1" ry="1" width="4" x="220.60000000000014" y="19.7"><title>2024-09-30 17.48 mins</title></rect><rect fill="#c5fbfe" height="4" rx="1" ry="1" width="4" x="220.60000000000014" y="25.1"><title>2024-10-01 27.78 mins</title></rect><rect fill="#ccffff" height="4" rx="1" ry="1" width="4" x="220.60000000000014" y="30.5"><title>2024-10-02 0.3 mins</title></rect><rect fill="#cbffff" height="4" rx="1" ry="1" width="4" x="220.60000000000014" y="35.9"><title>2024-10-03 2.73 mins</title></rect><rect fill="#cbffff" height="4" rx="1" ry="1" width="4" x="220.60000000000014" y="41.300000000000004"><title>2024-10-04 3.58 mins</title></rect><rect fill="#fffef9" height="4" rx="1" ry="1" width="4" x="220.60000000000014" y="46.699999999999996"><title>2024-10-05</title></rect><rect fill="#ccffff" height="4" rx="1" ry="1" width="4" x="220.60000000000014" y="52.1"><title>2024-10-06 1.73 mins</title></rect><text fill="#586e75" style="font-size:2.5px; font-family:Arial" x="226.00000000000014" y="18.3">Oct</text><rect fill="#ccffff" height="4" rx="1" ry="1" width="4" x="226.00000000000014" y="19.7"><title>2024-10-07 0.1 mins</title></rect><rect fill="#c7fcfe" height="4" rx="1" ry="1" width="4" x="226.00000000000014" y="25.1"><title>2024-10-08 21.37 mins</title></rect><rect fill="#6c71c4" height="4" rx="1" ry="1" width="4" x="226.00000000000014" y="30.5"><title>2024-10-09 263.6 mins</title></rect><rect fill="#65e2f8" height="4" rx="1" ry="1" width="4" x="226.00000000000014" y="35.9"><title>2024-10-10 84.97 mins</title></rect><rect fill="#c7fcfe" height="4" rx="1" ry="1" width="4" x="226.00000000000014" y="41.300000000000004"><title>2024-10-11 21.48 mins</title></rect><rect fill="#6c71c4" height="4" rx="1" ry="1" width="4" x="226.00000000000014" y="46.699999999999996"><title>2024-10-12 197.97 mins</title></rect><rect fill="#c6fcfe" height="4" rx="1" ry="1" width="4" x="226.00000000000014" y="52.1"><title>2024-10-13 24.9 mins</title></rect><rect fill="#c7fcfe" height="4" rx="1" ry="1" width="4" x="231.40000000000015" y="19.7"><title>2024-10-14 20.77 mins</title></rect><rect fill="#cbffff" height="4" rx="1" ry="1" width="4" x="231.40000000000015" y="25.1"><title>2024-10-15 4.03 mins</title></rect><rect fill="#ccffff" height="4" rx="1" ry="1" width="4" x="231.40000000000015" y="30.5"><title>2024-10-16 0.08 mins</title></rect><rect fill="#ccffff" height="4" rx="1" ry="1" width="4" x="231.40000000000015" y="35.9"><title>2024-10-17 0.28 mins</title></rect><rect fill="#ccffff" height="4" rx="1" ry="1" width="4" x="231.40000000000015" y="41.300000000000004"><title>2024-10-18 0.92 mins</title></rect><rect fill="#ccffff" height="4" rx="1" ry="1" width="4" x="231.40000000000015" y="46.699999999999996"><title>2024-10-19 0.37 mins</title></rect><rect fill="#c8fdff" height="4" rx="1" ry="1" width="4" x="231.40000000000015" y="52.1"><title>2024-10-20 15.0 mins</title></rect><rect fill="#65effb" height="4" rx="1" ry="1" width="4" x="236.80000000000015" y="19.7"><title>2024-10-21 47.77 mins</title></rect><rect fill="#c7fdfe" height="4" rx="1" ry="1" width="4" x="236.80000000000015" y="25.1"><title>2024-10-22 18.37 mins</title></rect><rect fill="#c9fdff" height="4" rx="1" ry="1" width="4" x="236.80000000000015" y="30.5"><title>2024-10-23 13.1 mins</title></rect><rect fill="#cbffff" height="4" rx="1" ry="1" width="4" x="236.80000000000015" y="35.9"><title>2024-10-24 3.68 mins</title></rect><rect fill="#c5fbfe" height="4" rx="1" ry="1" width="4" x="236.80000000000015" y="41.300000000000004"><title>2024-10-25 28.93 mins</title></rect><rect fill="#c9feff" height="4" rx="1" ry="1" width="4" x="236.80000000000015" y="46.699999999999996"><title>2024-10-26 11.87 mins</title></rect><rect fill="#c5fcfe" height="4" rx="1" ry="1" width="4" x="236.80000000000015" y="52.1"><title>2024-10-27 26.47 mins</title></rect><rect fill="#c7fdfe" height="4" rx="1" ry="1" width="4" x="242.20000000000016" y="19.7"><title>2024-10-28 18.68 mins</title></rect><rect fill="#65edfb" height="4" rx="1" ry="1" width="4" x="242.20000000000016" y="25.1"><title>2024-10-29 52.5 mins</title></rect><rect fill="#cbffff" height="4" rx="1" ry="1" width="4" x="242.20000000000016" y="30.5"><title>2024-10-30 2.62 mins</title></rect><rect fill="#c5fbfe" height="4" rx="1" ry="1" width="4" x="242.20000000000016" y="35.9"><title>2024-10-31 27.58 mins</title></rect><rect fill="#fffef9" height="4" rx="1" ry="1" width="4" x="242.20000000000016" y="41.300000000000004"><title>2024-11-01</title></rect><rect fill="#fffef9" height="4" rx="1" ry="1" width="4" x="242.20000000000016" y="46.699999999999996"><title>2024-11-02</title></rect><rect fill="#fffef9" height="4" rx="1" ry="1" width="4" x="242.20000000000016" y="52.1"><title>2024-11-03</title></rect><text fill="#586e75" style="font-size:2.5px; font-family:Arial" x="247.60000000000016" y="18.3">Nov</text><rect fill="#fffef9" height="4" rx="1" ry="1" width="4" x="247.60000000000016" y="19.7"><title>2024-11-04</title></rect><rect fill="#fffef9" height="4" rx="1" ry="1" width="4" x="247.60000000000016" y="25.1"><title>2024-11-05</title></rect><rect fill="#fffef9" height="4" rx="1" ry="1" width="4" x="247.60000000000016" y="30.5"><title>2024-11-06</title></rect><rect fill="#fffef9" height="4" rx="1" ry="1" width="4" x="247.60000000000016" y="35.9"><title>2024-11-07</title></rect><rect fill="#fffef9" height="4" rx="1" ry="1" width="4" x="247.60000000000016" y="41.300000000000004"><title>2024-11-08</title></rect><rect fill="#fffef9" height="4" rx="1" ry="1" width="4" x="247.60000000000016" y="46.699999999999996"><title>2024-11-09</title></rect><rect fill="#fffef9" height="4" rx="1" ry="1" width="4" x="247.60000000000016" y="52.1"><title>2024-11-10</title></rect><rect fill="#fffef9" height="4" rx="1" ry="1" width="4" x="253.00000000000017" y="19.7"><title>2024-11-11</title></rect><rect fill="#fffef9" height="4" rx="1" ry="1" width="4" x="253.00000000000017" y="25.1"><title>2024-11-12</title></rect><rect fill="#fffef9" height="4" rx="1" ry="1" width="4" x="253.00000000000017" y="30.5"><title>2024-11-13</title></rect><rect fill="#fffef9" height="4" rx="1" ry="1" width="4" x="253.00000000000017" y="35.9"><title>2024-11-14</title></rect><rect fill="#fffef9" height="4" rx="1" ry="1" width="4" x="253.00000000000017" y="41.300000000000004"><title>2024-11-15</title></rect><rect fill="#fffef9" height="4" rx="1" ry="1" width="4" x="253.00000000000017" y="46.699999999999996"><title>2024-11-16</title></rect><rect fill="#fffef9" height="4" rx="1" ry="1" width="4" x="253.00000000000017" y="52.1"><title>2024-11-17</title></rect><rect fill="#fffef9" height="4" rx="1" ry="1" width="4" x="258.40000000000015" y="19.7"><title>2024-11-18</title></rect><rect fill="#fffef9" height="4" rx="1" ry="1" width="4" x="258.40000000000015" y="25.1"><title>2024-11-19</title></rect><rect fill="#fffef9" height="4" rx="1" ry="1" width="4" x="258.40000000000015" y="30.5"><title>2024-11-20</title></rect><rect fill="#fffef9" height="4" rx="1" ry="1" width="4" x="258.40000000000015" y="35.9"><title>2024-11-21</title></rect><rect fill="#fffef9" height="4" rx="1" ry="1" width="4" x="258.40000000000015" y="41.300000000000004"><title>2024-11-22</title></rect><rect fill="#fffef9" height="4" rx="1" ry="1" width="4" x="258.40000000000015" y="46.699999999999996"><title>2024-11-23</title></rect><rect fill="#fffef9" height="4" rx="1" ry="1" width="4" x="258.40000000000015" y="52.1"><title>2024-11-24</title></rect><rect fill="#fffef9" height="4" rx="1" ry="1" width="4" x="263.8000000000001" y="19.7"><title>2024-11-25</title></rect><rect fill="#fffef9" height="4" rx="1" ry="1" width="4" x="263.8000000000001" y="25.1"><title>2024-11-26</title></rect><rect fill="#fffef9" height="4" rx="1" ry="1" width="4" x="263.8000000000001" y="30.5"><title>2024-11-27</title></rect><rect fill="#fffef9" height="4" rx="1" ry="1" width="4" x="263.8000000000001" y="35.9"><title>2024-11-28</title></rect><rect fill="#fffef9" height="4" rx="1" ry="1" width="4" x="263.8000000000001" y="41.300000000000004"><title>2024-11-29</title></rect><rect fill="#fffef9" height="4" rx="1" ry="1" width="4" x="263.8000000000001" y="46.699999999999996"><title>2024-11-30</title></rect><rect fill="#fffef9" height="4" rx="1" ry="1" width="4" x="263.8000000000001" y="52.1"><title>2024-12-01</title></rect><text fill="#586e75" style="font-size:2.5px; font-family:Arial" x="269.2000000000001" y="18.3">Dec</text><rect fill="#fffef9" height="4" rx="1" ry="1" width="4" x="269.2000000000001" y="19.7"><title>2024-12-02</title></rect><rect fill="#fffef9" height="4" rx="1" ry="1" width="4" x="269.2000000000001" y="25.1"><title>2024-12-03</title></rect><rect fill="#fffef9" height="4" rx="1" ry="1" width="4" x="269.2000000000001" y="30.5"><title>2024-12-04</title></rect><rect fill="#fffef9" height="4" rx="1" ry="1" width="4" x="269.2000000000001" y="35.9"><title>2024-12-05</title></rect><rect fill="#fffef9" height="4" rx="1" ry="1" width="4" x="269.2000000000001" y="41.300000000000004"><title>2024-12-06</title></rect><rect fill="#fffef9" height="4" rx="1" ry="1" width="4" x="269.2000000000001" y="46.699999999999996"><title>2024-12-07</title></rect><rect fill="#fffef9" height="4" rx="1" ry="1" width="4" x="269.2000000000001" y="52.1"><title>2024-12-08</title></rect><rect fill="#fffef9" height="4" rx="1" ry="1" width="4" x="274.6000000000001" y="19.7"><title>2024-12-09</title></rect><rect fill="#fffef9" height="4" rx="1" ry="1" width="4" x="274.6000000000001" y="25.1"><title>2024-12-10</title></rect><rect fill="#fffef9" height="4" rx="1" ry="1" width="4" x="274.6000000000001" y="30.5"><title>2024-12-11</title></rect><rect fill="#fffef9" height="4" rx="1" ry="1" width="4" x="274.6000000000001" y="35.9"><title>2024-12-12</title></rect><rect fill="#fffef9" height="4" rx="1" ry="1" width="4" x="274.6000000000001" y="41.300000000000004"><title>2024-12-13</title></rect><rect fill="#fffef9" height="4" rx="1" ry="1" width="4" x="274.6000000000001" y="46.699999999999996"><title>2024-12-14</title></rect><rect fill="#fffef9" height="4" rx="1" ry="1" width="4" x="274.6000000000001" y="52.1"><title>2024-12-15</title></rect><rect fill="#fffef9" height="4" rx="1" ry="1" width="4" x="280.00000000000006" y="19.7"><title>2024-12-16</title></rect><rect fill="#fffef9" height="4" rx="1" ry="1" width="4" x="280.00000000000006" y="25.1"><title>2024-12-17</title></rect><rect fill="#fffef9" height="4" rx="1" ry="1" width="4" x="280.00000000000006" y="30.5"><title>2024-12-18</title></rect><rect fill="#fffef9" height="4" rx="1" ry="1" width="4" x="280.00000000000006" y="35.9"><title>2024-12-19</title></rect><rect fill="#fffef9" height="4" rx="1" ry="1" width="4" x="280.00000000000006" y="41.300000000000004"><title>2024-12-20</title></rect><rect fill="#fffef9" height="4" rx="1" ry="1" width="4" x="280.00000000000006" y="46.699999999999996"><title>2024-12-21</title></rect><rect fill="#fffef9" height="4" rx="1" ry="1" width="4" x="280.00000000000006" y="52.1"><title>2024-12-22</title></rect><rect fill="#fffef9" height="4" rx="1" ry="1" width="4" x="285.40000000000003" y="19.7"><title>2024-12-23</title></rect><rect fill="#fffef9" height="4" rx="1" ry="1" width="4" x="285.40000000000003" y="25.1"><title>2024-12-24</title></rect><rect fill="#fffef9" height="4" rx="1" ry="1" width="4" x="285.40000000000003" y="30.5"><title>2024-12-25</title></rect><rect fill="#fffef9" height="4" rx="1" ry="1" width="4" x="285.40000000000003" y="35.9"><title>2024-12-26</title></rect><rect fill="#fffef9" height="4" rx="1" ry="1" width="4" x="285.40000000000003" y="41.300000000000004"><title>2024-12-27</title></rect><rect fill="#fffef9" height="4" rx="1" ry="1" width="4" x="285.40000000000003" y="46.699999999999996"><title>2024-12-28</title></rect><rect fill="#fffef9" height="4" rx="1" ry="1" width="4" x="285.40000000000003" y="52.1"><title>2024-12-29</title></rect><rect fill="#fffef9" height="4" rx="1" ry="1" width="4" x="290.8" y="19.7"><title>2024-12-30</title></rect><rect fill="#fffef9" height="4" rx="1" ry="1" width="4" x="290.8" y="25.1"><title>2024-12-31</title></rect></svg>